<?xml version="1.0" standalone="no"?>
<!DOCTYPE svg PUBLIC "-//W3C//DTD SVG 20010904//EN"
 "http://www.w3.org/TR/2001/REC-SVG-20010904/DTD/svg10.dtd">
<svg version="1.0" xmlns="http://www.w3.org/2000/svg"
 width="1200.000000pt" height="1200.000000pt" viewBox="0 0 1200.000000 1200.000000"
 preserveAspectRatio="xMidYMid meet">
<metadata>
Created by potrace 1.16, written by Peter Selinger 2001-2019
</metadata>
<g transform="translate(0.000000,1200.000000) scale(0.100000,-0.100000)"
fill="#000000" stroke="none">
<path d="M5095 9135 c-359 -48 -699 -188 -979 -403 -151 -116 -314 -308 -391
-462 -76 -153 -107 -287 -109 -480 -2 -249 64 -425 219 -584 100 -102 188
-166 443 -320 116 -70 282 -220 282 -254 0 -6 16 -66 35 -133 19 -68 62 -225
96 -349 33 -124 64 -229 69 -233 4 -5 52 9 106 31 505 204 1220 271 1974 186
113 -12 210 -28 462 -71 24 -5 27 -1 32 28 7 45 56 479 56 500 0 14 21 17 158
22 165 6 240 20 375 71 256 96 439 295 462 504 19 169 -86 342 -306 504 -27
20 -44 47 -72 115 -192 463 -703 781 -1376 858 l-144 17 -81 70 c-230 199
-494 323 -796 375 -126 21 -383 25 -515 8z"/>
<path d="M2826 4794 c-74 -23 -156 -110 -185 -194 -46 -137 -35 -345 24 -445
64 -111 136 -149 275 -150 86 0 101 3 163 32 62 29 67 34 67 63 0 18 -3 30 -8
28 -4 -1 -34 -16 -67 -33 -53 -27 -70 -30 -150 -30 -126 0 -182 35 -234 145
-23 51 -25 66 -25 195 0 112 3 148 17 180 31 70 66 112 120 140 43 24 64 29
127 29 66 1 85 -3 140 -31 35 -17 68 -29 72 -27 4 3 8 18 8 33 0 25 -7 32 -52
52 -69 30 -218 37 -292 13z"/>
<path d="M3616 4622 c-2 -4 -45 -109 -94 -232 -50 -124 -104 -259 -121 -300
-17 -41 -31 -76 -31 -78 0 -2 14 -2 31 0 28 3 33 9 54 69 41 119 24 110 193
107 l147 -3 30 -87 c28 -83 31 -88 59 -88 33 0 33 -7 -14 120 -50 132 -125
338 -150 410 -12 36 -27 71 -32 78 -11 13 -64 17 -72 4z m94 -209 c29 -82 55
-154 58 -160 3 -10 -26 -13 -123 -13 -70 0 -125 4 -123 9 45 118 124 311 128
311 3 0 30 -66 60 -147z"/>
<path d="M4200 4320 l0 -310 30 0 29 0 3 138 3 137 110 5 c102 5 110 7 110 25
0 19 -8 20 -113 23 l-113 3 3 117 3 117 135 0 135 0 0 25 0 25 -167 3 -168 2
0 -310z"/>
<path d="M4800 4320 l0 -310 178 2 c175 3 177 3 180 26 3 22 3 22 -147 22
l-151 0 0 120 0 120 120 0 120 0 0 25 0 25 -120 0 -121 0 3 113 3 112 141 -3
c138 -2 142 -2 147 20 3 12 4 25 1 30 -3 4 -84 8 -180 8 l-174 0 0 -310z"/>
<path d="M5380 4599 l0 -31 93 3 92 4 3 -282 2 -283 30 0 30 0 2 283 3 282 93
-4 92 -3 0 31 0 31 -220 0 -220 0 0 -31z"/>
<path d="M6116 4622 c-3 -5 -5 -145 -4 -310 l2 -302 178 0 178 0 0 25 0 25
-150 0 -150 0 0 120 0 120 120 0 120 0 0 25 0 24 -117 3 -118 3 0 110 0 110
145 0 145 0 0 25 0 25 -172 3 c-94 1 -174 -1 -177 -6z"/>
<path d="M6768 4624 c-1 -5 -2 -145 -2 -311 l-1 -303 27 0 28 0 0 114 0 114
31 6 c82 16 92 11 144 -66 114 -172 141 -198 172 -167 8 8 -13 42 -73 122 -81
108 -97 137 -72 137 23 0 81 54 99 94 22 49 24 124 5 171 -8 19 -32 46 -57 62
-40 26 -50 28 -171 32 -70 1 -129 -1 -130 -5z m232 -58 c85 -31 108 -151 41
-220 -40 -41 -78 -53 -158 -48 l-63 4 0 123 c0 68 3 130 6 139 8 20 121 21
174 2z"/>
<path d="M7490 4321 l0 -311 30 0 30 0 -2 308 -3 307 -27 3 -28 3 0 -310z"/>
<path d="M8367 4615 c-69 -24 -117 -85 -117 -145 0 -74 49 -124 182 -185 110
-50 142 -106 101 -176 -38 -64 -170 -76 -248 -23 -20 13 -38 24 -41 24 -3 0
-4 -16 -2 -37 3 -32 7 -38 43 -51 22 -8 74 -15 115 -16 65 -1 81 3 123 27 62
37 87 77 87 142 0 74 -36 112 -156 170 -145 69 -171 109 -121 182 37 55 129
70 201 33 46 -23 56 -19 56 19 0 25 -5 30 -44 40 -59 15 -132 13 -179 -4z"/>
<path d="M9083 4613 c-3 -10 -56 -139 -116 -288 -60 -148 -111 -280 -114 -292
-5 -20 -1 -23 23 -23 26 0 31 6 46 53 9 28 24 69 32 90 l16 37 145 0 146 0 20
-47 c11 -27 26 -67 32 -90 10 -38 15 -43 39 -43 15 0 28 4 28 10 0 5 -34 103
-76 217 -42 115 -91 249 -109 298 -32 89 -33 90 -69 93 -28 2 -38 -1 -43 -15z
m101 -209 c31 -82 56 -153 56 -157 0 -4 -54 -7 -120 -7 -84 0 -120 3 -120 12
0 6 20 61 44 122 66 163 77 189 81 185 2 -2 28 -72 59 -155z"/>
<path d="M1473 3359 c-33 -9 -63 -50 -63 -84 0 -30 55 -73 115 -90 61 -18 95
-44 95 -72 -2 -74 -133 -93 -175 -25 -11 17 -26 31 -32 32 -36 1 17 -75 62
-90 85 -28 165 11 165 81 0 46 -37 81 -104 98 -63 16 -101 50 -92 84 8 33 38
50 88 50 42 0 66 -15 79 -50 10 -27 29 -30 29 -5 0 23 -34 60 -67 73 -29 11
-57 10 -100 -2z"/>
<path d="M1758 3251 c-29 -25 -32 -35 -36 -95 -4 -64 -3 -67 31 -101 77 -77
187 -19 187 100 0 108 -106 164 -182 96z m123 -20 c24 -25 29 -38 29 -79 0
-85 -59 -132 -120 -95 -56 33 -63 133 -12 180 34 31 67 29 103 -6z"/>
<path d="M2167 3273 c-11 -10 -8 -169 3 -199 20 -51 69 -68 124 -43 20 9 29 9
41 -1 13 -11 15 2 15 119 0 81 -4 131 -10 131 -6 0 -10 -36 -10 -87 0 -50 -6
-99 -13 -112 -21 -42 -93 -46 -119 -7 -4 6 -8 55 -8 109 0 89 -5 109 -23 90z"/>
<path d="M2487 3260 c-83 -65 -43 -240 55 -240 43 0 98 34 98 60 0 26 -6 25
-33 -5 -36 -40 -71 -42 -107 -7 -26 26 -30 38 -30 82 0 44 4 56 29 81 39 38
66 37 106 -5 34 -37 46 -38 38 -5 -15 55 -107 78 -156 39z"/>
<path d="M2908 3263 c-34 -22 -53 -66 -51 -120 4 -99 82 -150 164 -107 74 38
78 178 7 228 -29 21 -86 20 -120 -1z m113 -32 c39 -39 42 -115 5 -157 -32 -38
-89 -39 -117 -3 -56 72 -17 188 64 189 10 0 32 -13 48 -29z"/>
<path d="M3170 3155 c0 -93 3 -125 13 -125 9 0 12 25 12 91 0 87 1 92 28 115
32 27 55 30 83 10 16 -12 20 -30 24 -115 7 -135 25 -133 25 3 0 88 -3 107 -19
125 -23 25 -82 28 -112 6 -25 -19 -34 -19 -34 0 0 8 -4 15 -10 15 -6 0 -10
-48 -10 -125z"/>
<path d="M3500 3263 c-32 -22 -38 -30 -50 -75 -23 -83 32 -168 110 -168 22 0
47 8 61 19 33 27 17 37 -26 16 -45 -21 -83 -9 -108 34 -33 56 -27 61 73 61 90
0 90 0 90 25 0 34 -25 82 -49 95 -29 15 -73 12 -101 -7z"/>
<path d="M3755 3255 c-14 -13 -25 -30 -25 -37 0 -29 33 -58 86 -75 60 -19 81
-41 65 -72 -22 -40 -94 -34 -132 12 -18 22 -18 22 -19 1 -1 -69 133 -85 175
-21 20 31 4 71 -34 85 -14 6 -44 16 -66 24 -31 11 -41 20 -43 39 -4 36 44 57
88 39 17 -7 30 -19 30 -26 0 -8 7 -14 15 -14 24 0 18 27 -11 49 -38 30 -98 28
-129 -4z"/>
<path d="M4312 3155 c4 -150 21 -168 28 -29 4 81 8 98 25 110 34 25 64 28 85
9 17 -16 20 -31 20 -117 0 -80 3 -98 15 -98 12 0 15 17 15 96 0 90 -9 130 -34
146 -19 13 -81 9 -104 -8 -20 -14 -23 -14 -28 0 -17 44 -24 5 -22 -109z"/>
<path d="M4822 3264 c-73 -51 -68 -190 8 -229 48 -25 121 -13 134 21 7 18 -4
18 -42 -1 -18 -10 -41 -13 -56 -9 -33 8 -66 49 -66 80 0 23 2 24 85 24 66 0
87 3 91 15 9 22 -15 83 -39 100 -28 19 -87 19 -115 -1z"/>
<path d="M5090 3260 c-57 -57 -51 -180 11 -224 26 -18 84 -22 94 -6 3 6 13 10
22 10 11 0 14 -7 9 -27 -14 -57 -77 -80 -124 -47 -32 22 -43 7 -13 -17 35 -29
105 -26 136 6 24 23 25 28 25 175 0 84 -4 150 -9 150 -5 0 -11 -6 -14 -12 -3
-10 -9 -10 -26 0 -32 19 -88 15 -111 -8z m123 -32 c21 -26 23 -108 2 -148 -24
-47 -101 -43 -124 6 -14 32 -14 96 0 128 22 48 86 56 122 14z"/>
<path d="M5555 3255 c-26 -25 -32 -45 -15 -45 5 0 20 11 34 25 44 44 116 22
116 -34 0 -28 -2 -29 -60 -33 -73 -5 -104 -29 -102 -80 2 -60 67 -87 132 -53
25 13 29 13 34 0 3 -8 10 -15 16 -15 6 0 10 40 10 105 0 99 -2 107 -25 130
-34 35 -106 35 -140 0z"/>
<path d="M5984 3246 c-31 -31 -34 -39 -34 -94 0 -50 4 -66 26 -91 32 -39 83
-50 130 -27 19 8 34 20 34 26 0 14 -14 12 -48 -7 -25 -14 -34 -15 -60 -4 -31
13 -68 72 -57 91 3 6 44 10 91 10 l84 0 0 36 c0 50 -45 94 -95 94 -29 0 -45
-8 -71 -34z"/>
<path d="M6255 3255 c-14 -13 -25 -30 -25 -37 0 -30 33 -58 85 -74 79 -23 99
-72 39 -95 -34 -12 -78 1 -104 33 -19 23 -19 23 -20 2 -1 -59 117 -86 164 -38
20 20 21 68 1 88 -8 8 -39 22 -69 30 -65 19 -83 48 -46 78 33 26 64 22 99 -14
26 -27 31 -29 31 -12 0 25 -10 38 -37 53 -38 19 -91 14 -118 -14z"/>
<path d="M6655 3258 c-3 -13 -4 -90 -3 -172 2 -109 6 -150 16 -154 9 -3 12 12
12 52 0 42 4 56 14 56 8 0 18 -4 21 -10 3 -5 24 -10 45 -10 74 0 112 87 85
197 -14 56 -93 82 -143 47 -20 -14 -22 -14 -22 0 0 24 -19 19 -25 -6z m152
-26 c54 -70 6 -205 -66 -187 -49 12 -61 32 -61 105 0 68 10 88 50 103 23 9 62
-2 77 -21z"/>
<path d="M6985 3268 c-28 -16 -45 -41 -36 -51 5 -5 20 3 34 17 45 45 117 24
117 -35 0 -28 -2 -29 -47 -29 -66 0 -113 -29 -113 -71 0 -16 5 -39 10 -49 15
-28 75 -36 116 -17 20 10 36 12 39 7 17 -28 25 0 25 90 0 94 -2 103 -25 125
-27 28 -84 33 -120 13z"/>
<path d="M7435 3255 c-28 -27 -32 -45 -10 -45 8 0 15 6 15 13 0 16 41 37 70
37 28 0 60 -35 60 -65 0 -24 -3 -25 -54 -25 -43 0 -61 -5 -82 -23 -33 -28 -37
-76 -9 -107 23 -25 81 -27 115 -3 17 12 25 13 28 5 2 -7 10 -12 19 -12 12 0
14 17 11 106 -3 97 -5 107 -27 125 -35 29 -105 26 -136 -6z"/>
<path d="M8030 3175 c0 -99 2 -107 25 -130 26 -27 91 -35 113 -13 8 8 15 8 25
0 8 -7 17 -9 20 -5 4 3 7 62 7 130 0 103 -2 123 -15 123 -12 0 -15 -18 -15
-98 0 -83 -3 -102 -18 -115 -22 -20 -85 -22 -100 -4 -6 7 -13 58 -14 112 -2
68 -7 100 -15 103 -10 3 -13 -22 -13 -103z"/>
<path d="M8766 3259 c-26 -21 -35 -49 -15 -49 6 0 20 11 31 25 36 46 124 18
116 -38 -3 -19 -11 -23 -60 -27 -96 -9 -138 -71 -83 -125 28 -29 79 -33 113
-9 22 15 24 15 36 -1 20 -28 23 -8 17 107 -5 91 -9 109 -26 122 -30 23 -97 20
-129 -5z"/>
<path d="M9234 3246 c-31 -31 -34 -39 -34 -93 0 -65 15 -95 60 -118 40 -20 83
-19 111 4 32 26 20 35 -19 16 -52 -27 -116 7 -124 65 -3 25 -2 25 85 28 l87 3
0 35 c0 50 -45 94 -95 94 -29 0 -45 -8 -71 -34z"/>
<path d="M9698 3251 c-29 -25 -32 -35 -36 -95 -4 -64 -3 -67 31 -101 28 -28
43 -35 75 -35 40 0 94 31 80 46 -4 4 -13 2 -20 -3 -7 -6 -27 -14 -45 -17 -26
-6 -37 -2 -62 21 -17 15 -32 39 -33 53 -3 25 -2 25 85 28 l87 3 0 35 c0 26 -8
43 -29 65 -40 39 -89 40 -133 0z"/>
<path d="M10295 3255 c-23 -23 -33 -45 -19 -45 3 0 19 11 36 25 16 14 40 25
54 25 31 0 64 -33 64 -65 0 -23 -3 -25 -50 -25 -63 0 -96 -15 -111 -53 -10
-24 -10 -34 2 -56 22 -38 61 -49 114 -30 38 14 45 14 49 2 23 -59 37 113 16
189 -13 44 -34 58 -90 58 -30 0 -47 -6 -65 -25z"/>
</g>
</svg>
